<svg xmlns="http://www.w3.org/2000/svg" viewBox="0 0 895 183"><defs/><g fill="none" fill-rule="evenodd" stroke="#D0011B" stroke-linecap="round" stroke-linejoin="round" stroke-width="4"><path d="M296 61.5l-10-9 10 9 8.5-9-8.5 9-3.844472-56.22539631M323.5 33l-2-27.72539631M363 73l9-8.5-9 8.5-10-7.5 10 7.5-1.5-20.5 8.5-1-8.5 1-8.5 1 8.5-1-3-47M400 39l-2-34M432.533498 6.82427151l2.163493 76.33795929L422.5 73l12.196991 10.1622308L446 73l-11.303009 10.1622308L434.5 68l-12-10.5 12 10.5L446 57.5 434.5 68l-.5-15.5-11.5-11 11.5 11 12-11-12 11-1.902707-45.66497855M621.257219 4.28355154L606.5 41l15.195229 12.2005842 10.527751-10.966407-10.527751 10.966407L606.5 41 605 23.2526777 606.5 41l1.5 19.5 15.449854 12.8787731 14.037001-17.5462512-14.037001 17.5462512L608 60.5l1.851509 17.2653359 16.20868 13.1596884 11.426666-13.1596884-11.426666 13.1596884-16.20868-13.1596884L614.493427 137l22.993428 10-11.426666 20L608 154.5l3.5-7.5M511.079844 14.0408958l5.702532 68.4303798 27.635346 32.4605644-11.84372 24.564752-11.84372-17.546251 3.509251-12.282376-3.509251 12.282376 11.84372 17.546251 11.84372-24.564752-27.635346-32.4605644-5.702532-68.4303798 8.33447-9.21178188M542.434925 4.37189146l.666828 9.66900434 10.966407 9.2117819 7.0185-9.2117819-7.0185 9.2117819-10.966407-9.2117819.438656 10.0890945 10.527751 10.966407 7.0185-7.8958131-7.0185 7.8958131-10.527751-10.966407.877313 14.0370009 9.650438 11.4050633 9.650438-11.4050633-9.650438 11.4050633-9.650438-11.4050633 1.754625 17.5462513 7.895813 11.4050632 9.650438-14.0370009-9.650438 14.0370009-7.895813-11.4050632M848 3l4 34.5M870 40.9578118L862 31l8 9.9578118L877.75 31 870 40.9578118V21l-8-6.6678898L870 21l7.75-6.6678898L870 21V3.5M784.5 131c-9-1.5-12-5-12-5l-4 5 4-5c-7-1.5-10-12.5-10-12.5l-3 6 3-6s-.5-16.5-15-28C741.3539215 79.46566834 727 74 727 74s-4.25688374 17.8868371-2.5 25.5c.95847798 4.1534046 11.2635994 8.8451957 12 14 .5 3.5-7.70669078 14.7469752-7.70669078 14.7469752S733.67148471 126.0835627 739.5 131c.3531662.2979008-3-3.6676087-10.70669078-2.7530248L735 119.5s5.5.5 8.3589233 2.160361c0 0-4.3589233-2.160361-8.3589233-2.160361 0 0 2.5-4.5 1.5-6 1.1268194-2.9707056-1.2933092-4-6.5-8-1.56657304-1.2035076 0-5 0-9.5-3-4.5-5.5-7-5.5-7"/><path d="M745.5 139s0-13 6-15.5 13 11.5 13 11.5M741.5 96.5c-2.276775-1.0348977-6-1.25-6-1.25l1.5-5.75s4.5 3.5 7.5 4c2.1166596 1.7910197 4 5 3 7.5-3-2-3.723225-3.4651023-6-4.5zM776.398795 9.15654784l-.316987-4.44740615M805 154l42 40-17 20-20.5-20 5.343104-8L809.5 194l20.5 20 17-20-42-40L788.213766 4.70914169M727 39.5s11-5 29.5 16.5c6.5 8.5 4 27.5 4 27.5s3.5-18-4-27.5C735 32.5 727 39.5 727 39.5l-3.32055-34.79085831M748.5 23L765 6.5l6 54.5-6-54.5L748.5 23l-3.309527-18.58426482M2 11.5v-9"/></g></svg>
