
<svg xmlns="http://www.w3.org/2000/svg" viewBox="0 0 895 183"><defs/><g fill="none" fill-rule="evenodd" stroke="#D0011B" stroke-linecap="round" stroke-linejoin="round" stroke-width="4"><path d="M9.5 2.5H53v37l11.5-9-11.5 9-10-9 10 9v29L43 59l10 9.5L64.5 59M99.6179821 5.5561436L96.5 30.5"/><path d="M2.5 87.5l28 26.5L111 38c20-19 32-30.5 45.5-22.5s11 36.5 11 36.5L164 99.5M329.5 3L325 45M256 56.5264242L245.5 45 256 56.5264242 267.898297 45 256 56.5264242V34l11.898297-11L256 34l-10.5-11L256 34V4.5"/><path d="M181.5 111.5L138.511231 151 155 180.5l26.5-29.5-10-10 10 10-26.5 29.5-16.488769-29.5L181.5 111.5 193.758478 4M373.134421 77.1280848L319 119.5l11.5 24 24-14-8-16 8 16-24 14-11.5-24 54.134421-42.3719152L380.743827 4M467.5 2v16l11.5-8-11.5 8v27.5L429 72l16-11"/><path d="M445 2.5v32L434.5 43l10.5-8.5V80 34.5L467.5 18M576.5 19.5l12 10-12-10-2 36 10.056667 10.391889L574.5 55.5l3-52M626 25l14 13.5v27.391889L626 53.5l14 12.391889V72.5 4M893 2.5V12"/></g></svg>
