
<svg xmlns="http://www.w3.org/2000/svg" viewBox="0 0 898 341"><defs/><g fill="none" fill-rule="evenodd" stroke="#D0011B" stroke-linecap="round" stroke-linejoin="round" stroke-width="4"><path d="M32 338.5V301l11.5 8-11.5-8-11.5 8 11.5-8v-32l-11.5 10L32 269l10 10m-10 59.5h47M2.5 44L17 181.5 47 162v-25 25l41.5 69.5V175L76 191l12.5-16 12.5 16-12.5-16v24L76 211l12.5-12 12.5 12-12.5-12v32.5l27.5 53 1.511231-58.938004L104 241.5l13.511231-15.938004L130.5 241.5l-12.988769-15.938004V254.5L104 264.5l13.511231-10L129.5 264.5l-11.988769-10L116 284.5s8.5 26 34.5 5c14.650449-11.086826 16-71 16-71l18 16-11.741522 104.206009M173 337.5h31s-15-3-16.5-26.5c0-13 12.5-22 20-23 8-1 10.164059 3.32756 12.5 8.5.445225.985855-1 8.5-5.5 10-.798337.328727 7.065951-6.122888 5.5-10-.857837-2.123905-4.5-10.5-12.5-8.5 0 0-3.5 13-1 20.5 4.5 11 11 12.5 11 12.5s-4.69266 2.283027-6.5 4c-1.043492.991317-2.836668 3.193443-3.5 5-.245333.668154 1.534365-3.576609 3.5-5 1.809697-1.583485 3.827824-2.852717 6.5-4 1.591135-.683144-7.910122-3.19708-11-12.5-2.108664-6.348709 1-20.5 1-20.5s-19.718068 4.5-20 23c-.211061 13.849517 7.5 21.5 16.5 26.5h31v-61.670509L224.5 288.5l10.5-12.670509L246.898297 288 235 275.829491V301.5l11.898297 15L235 301.5l-10.5 13 10.5-13m0 36h29.5s-14.5-17.5-9.5-33c9-18 23.912832-12.236793 30.5-4.5 1.75368 2.059741-1.425165 6.422395-3.924864 9.281009-.841169.961947.642705-4.701536 3.924864-9.281009 1.393743-1.944637-10.364731-8.38491-16-7-3.032896.745357-2.091248 12.720741 2 20 2.110732 3.755472 10.075136 9 10.075136 9S277.5 324 273.5 330c0 0 4.569441-6.523918 8.075136-8 1.515442-.638081-6.515095-2.105753-10.075136-9-2.542184-4.923103-6-17.5-2-20 0 0-8-1.5-14.5 11.5-5 15.5 9.5 33 9.5 33h44M619 339l-32-25.5 2-57-17-16.5s-1.673713 38.910841-2 42.5c-1.5 16.5-7.18509 21.64633-13.5 22.5-10.5 1.419423-18.5-5-26.985569-28.796112C534 275 541.163334 262.606939 539.5 260.5c-5.483679-6.946156-9.231287-14.119625-11-11.5-3.873075 5.736375-2.503559 10.902406-2.5 10 .013538-3.432159 1.316885-10.126494 3.514431-10 3.168306.182373 9.751864 10.156596 9.985569 11.5 1.018608 5.855241-9.161861 17.548875-9.985569 15.703888C527.201344 271.022902 523.278262 263.5 520 263.5c-9.464429-4.680212-24 16-24 16l-2.5 27L525 339m31.5 0H525l-31.5-32.5L501 223l-18.5-23.5v39s3.5 34-26.5 41c-19.963569 4.658166-57-51-57-51"/><path d="M446.5 268.5s-22-2-27-19.5 8.5-26.5 8.5-26.5"/><path d="M439 255.5s10-3.5 12.5-13c1.597024-6.068691-.696958-11.465625-5.5-15.5-.767644-.644792-5-3.5-5-3.5l9.5-11.5s-5.779703-17-8.5-17c-1.500959 0-9.5 13-9.5 15s4.5 10 4.5 10M414 181.5s5.528399 2.522719 8 4.5c1.553512 1.242809 4.66306 4.180346 6.5 7 .667465 1.024542-6.5-8.5-9.5-8.5 0 0-2.5 3.5-2 9M459.75 200.5c1.75-5-.964924-7.205596-1.75-7.5-.785076-.294404-5 5.5-5 5.5s2.5-4 5-5.5c2.800424-1.680254 8.5-2.5 8.5-2.5M443 166.5l-1.595073 15.153192L442.5 171c1.5 0 6.5 4 6.5 4s-6-7-15.5-3M225 73.5l64 80.5 21-15.5v-19 19l30 32M310 111v-10M546.5 301s-3-11-7-14.5M517.5 262s-2.5-5.5-5.5-8.5c-1.627512-1.627512-5.312898-4.57314-7-3.5-1.42274.904983 1 5.885153 1 5.885153M354 129.905709l10.274313-9.748844 8.728996 9.748844L364 142.5l-10-12.594291-2 21.115117h20.508837v10.4934H349.5L343.5 220H335v-15.5m-12.5 13V195v22.5zm-8 0V194v23.5zm-11 0V194v23.5zm-9.5 0V196v21.5zm-13-13s.29048 14.078925 0 13c-.458729-1.703852 0-13 0-13s11-11.5 28.5-11.5c18.5 0 25.5 11.5 25.5 11.5V220h-63.5v-38.5L261 195l10.5-13.5L281 195l-9.5-13.5v-18l9.5 16-9.5-16-10.5 16 10.5-16v92V220m22.5 35.5v-34 34zm23.5 3.5l2-26-2 26zM259 220l-1 37.5 1-37.5-13 3-3.5 41 3.5-41s-17.886355 5.468172-18.776386 6.956392C225.652717 232.583084 225 255.5 225 255.5l2.223614-25.543608S256.84783 214.864597 284.5 220c35 6.5 57.615211 26.350151 57.615211 26.350151L341 272s7.5 5 13 10c.654543.654543 10 15.5 10 15.5m-4.256173 41.475697L364 297.5l8.508837-127H357h15.508837L366 275h25.5v-95.5l9 10-9-10-8.5 10 8.5-10v22L399 212l-7.5-10.5L383 212l8.5-10.5V239l9 10.5-9-10.5-8.5 9 8.5-9v13.5l9 13.5-9-13.5L383 264l8.5-11.5V275s17 0 31 7c31.33093 15.665465 27 55.5 27 55.5h36-39m-47.5 0h25m-60-40S350.5 268 309.5 259c-38-10.5-67 7-67 7l15.5 16s-13.376162-14.088161-18.5-18c-9.153021-6.987955-24.5-8.5-24.5-8.5L229 125l-16.5-22.5-2.5 40s0 30-27.5 39c-16.932914 0-33.330861-31.810419-33.330861-31.810419L130.5 116.5l-1.261-53.7053761 7.64045 7.7113242-7.84571-7.7113242c.092955-10.62152.110287-21.6009652 0-24.7946239l11.554355 10.8283644L129.03374 38 118 48.8283644 129.239 38l-.20526 24.7946239L118 72l11.03374-9.2053761L130.5 116.5 89 48V33v15L63.5 72 33 2"/><g><path d="M480 161l44.9118299 35.396603v-19.7708931l-9.0839238 6.94653 9.0839238-6.94653 9.0839238 6.94653-9.0839238-6.94653v19.7708931l32.5952561 30.4578623L581.018418 212v-11 11l98.320117 73.098447v-18.637571 18.637571h41.67918-41.67918l12.824363 10.152621h17.099151-17.099151l28.854817 21.373939S718.5 306.5 724 302.5c6.5-2.5 13 1.834992 13 1.834992l-2.5-1.603045 2-3.231947s-2.593873-5.030038-4.5-4.248932c-1.906127.781106-6.474168 5.913829-8 7.248932 0-.406118 31.5-47.5 31.5-47.5l-8 3.5 8-3.5s-30.10601 46.612915-31.5 47.5c-5.907879 4.543025-2.982285 14.125007-2.982285 14.125007l9.482285 6.94653 5-6.94653-5 6.94653 22.578623 14.427408s-12.824363-20.592112-8.549576-27.662381c4.274788-7.070269 14.554773 0 14.554773 0s-10.814333-4.151049-14.554773 0C743.008201 312.024363 755 301 755 301l7.5 6s3.5-2.665008 2.5-7.063215C764 295.538579 755 301 755 301l38.154757-34.539124-9.883111 2.420975 9.883111-2.420975-48.62571 43.875688s-3.740439 7.891488 8.549576 27.662381l7.480878-7.480878-7.480878 7.480878h22.032233s-10.276567-12.824363-3.864386-20.59086c-1.603045-2.920472 55.57224-35.515728 55.57224-35.515728l-8.549575-1.603046 8.549575 1.603046-67.73489 40.076134 22.84962-13.358711s10.15262.534348 10.15262 4.274787c0 3.74044-5.343484 4.523518-5.343484 4.523518l-4.809136-8.798305s-5.877833 2.634853-10.68697 8.798305c-4.809136 6.163452-1.093335 12.57561 3.864386 20.59086l8.16079-9.083924-8.16079 9.083924h36.211749s-14.961757-11.221318-8.549575-18.702196c6.412181-5.343485 50.763103-24.045681 50.763103-24.045681l-9.846238-1.23078 9.846238 1.23078-60.381376 26.717423 24.580029-10.686969s-2.232854-6.653224-5.343484-5.343485c-3.11063 1.30974-4.274788 9.618273-4.274788 9.618273l-2.137394 1.068697-3.20609 3.20609c-5.877834 7.480879 8.549575 18.167848 8.549575 18.167848l6.94653-9.083924-6.94653 9.083924h41.028509s-2.240137-2.732381-4.445874-5.984421c-1.989089-2.932626-3.950203-6.287843-4.215345-8.442987-.357207-2.903463.378076-7.044907 3.776286-9.083924 3.39821-2.039017 47.749132-11.755666 47.749132-11.755666l-8.385483-2.795162 8.385483 2.795162-32.595256 7.604617s-2.137394-7.604617-8.015227-6.001572c-2.593161.465555-2.253716 8.549575-2.253716 8.549575l-16.982828 4.523518 12.097895-2.920472s-4.617017 2.920472-3.776286 9.083924c.166092 3.114541 8.661219 14.443818 8.661219 14.443818h6.528504s2.671742-2.688152 3.740439-4.825546c1.068697-2.137394 1.603046-4.809136 1.603046-4.809136s-.534349 2.671742-1.603046 4.809136c-1.068697 2.137394-3.740439 4.825546-3.740439 4.825546l12.824363-.01641"/><path d="M730 292.5v-19V284l-25.5-16v12.5V255v13L681 284M657.5 331L639 318M631.5 284.5l10-9.5M607 284.5l-10.5-10M626 323l9-16-15.5-14-11.5 10.5"/></g></g></svg>
