<svg xmlns="http://www.w3.org/2000/svg" viewBox="0 0 895 491"><defs/><g fill="none" fill-rule="evenodd" stroke="#D0011B" stroke-linecap="round" stroke-linejoin="round" stroke-width="4"><path d="M881 2l-37 140-15-5.5-20.5 64L844 224l41-102-24 60v-32l5.5 7-5.5-7-7 7 7-7v-18.5s-7.399325 5.165-7 5c.731378-.302204 7-5 7-5l5.5 5-5.5-5V182l-17 42-30.156896 71.5L850 261l24 15.061496L850 261l-36.156896 33.823013M791 346.5l-.5-29.5 23.343104-21.5L844 224l-78-54.5-52.5 86-9.5-3.5-3.5 19 6 3.5 2 42.5 12.680119-13M726.25 362l-5.069881-58L708.5 314l-2-39.5s.180119-14.5 13-14.5 11.5 22 11.5 22l-11.5 13.5L731 282l2.222572 19.5L746 293l-5 8.5M761.5 409s11-13 8.5-33.5c-8.5-21.5-24-24.5-24-24.5l-5-49.5h-7.777428v-16l10.920953-9.438504L750.5 287.5s13-4.5 19.5 6.5c3.178211 4.873257 4.542513 17.426915 5.081808 24.708661M770 294c-3.159382-7.681764-10.5-8.5-10.5-8.5V252l-6-9.5 8-18.5 11 9.5s-1.132714.530667-4.5 2.5-5.892453 4.981133-6.5 6.5c-.918994 2.297485 3.5-8 13.5-9V187l-8.263968 10.406478L775 187l8.5 10.406478L775 187v18l8.5 8.5-8.5-8.5-8.263968 8.5L775 205v28.5s7-2.75 11.5 9 2 16.5 2 16.5L775 273l.398795 12.5L783.5 282v19.5V282l-8.5 3.5V273l13.5-14s2-7.5-2-16.5-7.5-9-7.5-9l9.5-12s.277402-17.854386 2-21c1.237364-2.259534 9.167796 1.47878 9.167796 1.47878L790.5 200.5l-2 21 7 7s-4.5-22 13-20c14.678848 1 14.678848 29.157096 14.678848 29.157096L808.5 252l14.678848-14.342904S823.2925 208.5 808.5 208.5c-12 0-13.5 4.5-13 20 .366921 11.374561 1 43 1 43l12-10.5v18.5M892.5 317H869v50.467328L861 358.5l8 8.967328L878 358.5l-9 8.967328V344l-8-8.5 8 8.5 7.75-8.5L869 344v-64.5l7.75 11.5-7.75-11.5-8 11.5 8-11.5v21l-8 8.326037L869 300.5l7.75 8.326037L869 300.5m0 16.5h-19v25M680.523856 228.149951S682 190.425511 673.5 190.425511s-9.013145 14.475657-9.013145 14.475657l-9.650438 14.475658 1.315969-17.546252s2.193281-11.405063-7.457157-11.405063-7.457157 11.405063-7.457157 11.405063l-12.721032 20.178189s25.029512-2.668325 25.003408-2.631937c-.167075.232892-25.003408 2.631937-25.003408 2.631937v-20.178189s0-9.650438-10.527751-9.650438c-6.813278 0-8.363619 1.992537-9.211782 6.141188-.462402 2.261768-8.334469 10.966407-8.334469 10.966407s8.773126-10.089094 8.334469-10.966407c.877313-5.702531 5.148252-5.971874 9.211782-6.141188 10.527751-.438656 10.527751 9.650438 10.527751 9.650438v20.178189l1.315969 17.546252-1.315969-17.546252-13.159688-10.966407v17.107595-17.107595l-13.598345 13.598345-39.040409 3.50925 24.564752-2.193281s11.255011-14.05681 13.159688-16.668939c0-7.895813-2.631938-15.35297-11.84372-14.475657-10.950338 1.042889-8.334469 14.475657-8.334469 14.475657l-17.546251 18.86222-17.546251-6.141188 17.546251 6.141188 8.334469-8.773125v-13.159689c0-3.50925 0-11.405063-8.334469-11.405063s-7.018501 10.089094-7.018501 10.089094l-10.52775 17.107595-6.141188-2.631937 8.065911 80.659108 10.357652 12.774679-1.754625-40.795034 1.754625 40.795034-10.357652-12.774679-5.87263 16.28393M561 355.5l-6 8.471637L546 356.5l2.5 25.5 8.954722 8.5 6.640091-9.904081L557.454722 390.5 548.5 382l-5-46 9 8.5 6-9.5-6 9.5-9-8.5-4-40 1.72444 20.319864 5.87263-16.28393-8.065911-80.659108-7.457157 13.598344 2.631938 31.583253-2.631938-31.583253h-17.546251l4.386563 42.988316-4.386563-42.988316 1.754625 21.494158L503.5 250.960078l4.825219 56.148004m10.089095 118.948644L515.782376 433.5l9.516159 8.5 10.257979-15.943274-22.46242-22.710273L508.325219 328.5l10.089095-11.5-10.089095-9.891918L503.5 250.960078l12.282376 3.50925-1.754625-21.494158h17.546251l7.457157-13.598344 6.141188 2.631937s-2.314224-32.350172-3.947907-33.776533c-2.12755-1.857554-5.702532-1.991035-5.702532-3.947907 0-4.386563 3.509251-3.070594 3.509251-3.070594L582.5 181h-35.40293l68.260282-74.5V94v12.5l13.475657 12L582.5 181h46.01704H582.5l73.652386-99V72v10l24.37147 12L688 82l18 9 34.5-54L706 91l-18-9V72v10l-59.48296 99h48.252191l19.300876-31.808179s2.193282-17.546251-17.984907-17.546251c-15.79744 0-14.914314 18.509142-14.914314 18.509142h22.37147-22.37147s-4.825219 1.669047-4.825219 5.616953c0 3.947907 3.50925 7.018501 3.50925 7.018501v7.0185-7.0185s-3.50925-2.193282-3.50925-7.018501 4.825219-5.616953 4.825219-5.616953-.877312-18.509142 14.914314-18.509142c19.91069 0 17.984907 17.546251 17.984907 17.546251L713.5 122v-11.5V122l31 20-7.196203 18.596884L720.5 149.191821 661.854917 269 720.5 149.191821l16.803797 11.405063 36.913904-95.2795877L791 72l19-58.5M615.357352 82v6.5V82zM688 56.5V62v-5.5zm-58.166991 183.055015L632 282l9-13.061587L650.5 276.5 634.01134 304 644 433.5l36.523856 37-12.844416 17.88826L650.5 473l6.25-11-6.25 11 17.17944 15.38826L680.523856 470.5 644 433.5l-5.5-66 15.020448 9.5 9.650438-11-9.650438 11L638.5 367.5 637 346l16.520448 10.5 9.650438-12-9.650438 12L637 346l-1-18.5 17.520448 9.5 9.650438-12-9.650438 12L636 327.5l-1.98866-23.5 22.141046-35.061587L650.5 276.5l-9.261928-7.561587L641 254.469328l.238072 14.469085L632 282l-2.166991-42.444985zM498.5 286.5c-8.5-12-22-15.5-22-15.5v12-20l8 6-8-6v-15l8 7-8-7-8.667883 7L476.5 248v15l-8.667883 6L476.5 263s.141513 8.021771 0 8c-9.71414-1.494483-14.853249-.980027-22.5 1.5-7.646751 2.480027-14.5 10.5-14.5 10.5v17.5-41L431 269l8.5-9.5 7 9.5-7-9.5v14l-8.5 8 8.5-8v9.5c-5.803009 6-8.5 20-8.5 20m13.263737 50.567022L454 362l9.5-8.432978L454 362v22.5l-9.736263-11L454 384.5l9.5-11-9.5 11v22.454562l9.5-10.818922-9.52405 10.818922-9.712213-10.818922 9.712213 10.818922L453.5 317h-54v33-33h54l.5-14s-1.5-14 7-14 6 15 6 15l-5 8s9-19.5 22.5-21 18 4.5 18 4.5-4.5-6-18-4.5-22.5 21-22.5 21l5-8s2-15-6-15-7 14-7 14l-.5 14H431v-14s-13-16.5-40-16.5c-7.5 0-15 4.5-15 4.5v16-38l7.5 7.5-7.5-7.5-8 7.5 8-7.5v22s-10.5 3-18.5 19v7m0 42.5l8.387987-6.5H349.5l8 6.5v24.563702l-8-5.795394 8 5.795394 8.387987-5.795394L357.5 384.063702V317H321l.25 16.5L321 317h36.5v-7c-2.01704-.973743-13.5-7-13.5-7v-24.5l-7 8 7-8 7 8-7-8V303s-10.5-4-22.5-2.5-18 6.5-18 6.5 1-11.5-7-11.5c-9 0-5.5 46.5-5.5 46.5l5.5-5.5-5.5 5.5-6-5.5m5-19l-49-.5"/><path d="M475 250.197547l-30.596998-23.536152-42.365074 47.072304 9.414461-7.060845L360.584222 220l-66.812595 64.913372 8.826057-8.237654-39.9379-38.401827-58.900886 35.627147-4.558917-9.219168 6.311075-4.633817-11.768076-7.591367-5.115264 7.591367 2.364425 6.325908-7.536897.151177L172.676831 232.5l10.778413 33.873961s-9.932801 2.29324-10.778413 5.03009c-3.646811 11.155706 3.414035 18.804955 3.414035 18.804955l15.0694-9.04164-33.309918 21.39812-1.765212-19.417326-11.179672-6.472442 7.64925-10.301757s0-1.692091-5.295635-4.996742c-5.295634-3.30465-8.826057 12.35648-8.826057 12.35648s4.118827 8.826058 2.353615 15.298499c1.765212-6.472441-4.118826-17.628147-4.118826-17.628147l-7.64925 2.496987-16.475306-27.233914 16.475306 27.233914-9.414461 7.266328c-1.382926 12.446334 17.063711 36.108215 17.063711 36.108215h15.886903-9.414461s7.649249-5.295634 7.060845-14.710095c.588404 9.414461-7.060845 14.710095-7.060845 14.710095h-37.657844s8.826057-4.70723 7.060846-14.710095c1.765211 10.002865-7.060846 14.710095-7.060846 14.710095s-12.9448838-11.179672-17.0637105-26.478171c.5884038-6.472442 8.2376533-7.64925 8.2376533-7.64925s2.9827213-1.259862 5.2956343 1.176808c2.8899259 3.044556 4.7072309 7.649249 4.7072309 7.649249l-4.118827-10.806851 8.826057 1.392391s5.295634-5.295635 0-8.826058c-5.295634-.588403-8.826057 7.433667-8.826057 7.433667l-25.3013638-24.497377 25.3013638 24.497377-5.8840382 1.980794s-8.8260571 1.765212-7.6492495 7.64925c.5884038 10.591268 16.4753067 26.478171 16.4753067 26.478171H86.6534871s-9.4144609-9.414461-7.6492495-18.240518c-1.7652114 8.826057 7.6492495 18.240518 7.6492495 18.240518H67.8245653S72.5317957 306.295634 71.3549881 301c1.1768076 5.295634-3.5304228 16.275581-3.5304228 16.275581s-11.3965149-13.762036-10.5912686-26.478171c.1999407-3.157386 12.6016425-5.26887 12.6016425-5.26887s3.8736641 1.150043 5.6388756 8.210889c0 0 7.0608456-10.591269 2.942019-13.904471-7.0608457-1.394028-8.5808946 5.693582-8.5808946 5.693582l-27.3117377-11.794841 27.3117377 11.794841s-12.6016425 1.738447-12.6016425 5.26887c-2.3536152 8.237653 10.5912686 26.478171 10.5912686 26.478171H56.0564891s-4.1188266-8.237653-3.5304228-12.944884c-.5884038 4.707231 3.5304228 12.944884 3.5304228 12.944884H38.4043749s10.0028647-5.884038 8.8260571-10.591268c.5884038 4.70723-8.8260571 10.591268-8.8260571 10.591268s-4.7072305-10.002865-4.7072305-18.240518c.7362316-1.472463 6.7695125-3.758897 6.7695125-3.758897s10.8826017-12.716409 7.3521789 3.170493c0 0-6.4921257-3.743962-7.3521789-3.170493-.6291686.41952-21.4796077-4.478756-21.4796077-4.478756l21.4796077 4.478756s-5.5927049 1.993686-6.7695125 3.758897c-1.1768076 1.765212 4.7072305 18.240518 4.7072305 18.240518H2.5V322M239 244.5L221 222M280.5 244.5l24-19M324 237l-19-24M412.5 215.5l-24 19M398 212l19 24M516 169l-6.5 5v18-18s-6 4.5-15.5 4.5V212v-33.5l-7-1.25M529.4774641 165S506 161.5 511.5 146s37-32.5 37-32.5"/><path d="M538.5 157.5s-16.5-2-13.5-10.5 39.5-10.5 39.5-10.5M505.5 150.5L497 146l-3 8s1 8.5 12 12"/><g><path d="M783.5 446c-9-1.5-12-5-12-5l-4 5 4-5c-7-1.5-10-12.5-10-12.5l-3 6 3-6s-.5-16.5-15-28C740.3539215 394.46566834 726 389 726 389s-4.25688374 17.8868371-2.5 25.5c.95847798 4.1534046 11.2635994 8.8451957 12 14 .5 3.5-7.70669078 14.7469752-7.70669078 14.7469752S732.67148471 441.0835627 738.5 446c.3531662.2979008-3-3.6676087-10.70669078-2.7530248L734 434.5s5.5.5 8.3589233 2.160361c0 0-4.3589233-2.160361-8.3589233-2.160361 0 0 2.5-4.5 1.5-6 1.1268194-2.9707056-1.2933092-4-6.5-8-1.56657304-1.2035076 0-5 0-9.5-3-4.5-5.5-7-5.5-7"/><path d="M744.5 454s0-13 6-15.5 13 11.5 13 11.5M740.5 411.5c-2.276775-1.0348977-6-1.25-6-1.25l1.5-5.75s4.5 3.5 7.5 4c2.1166596 1.7910197 4 5 3 7.5-3-2-3.723225-3.4651023-6-4.5zM775.3987951 324.15654784l-.3169868-4.44740615"/></g></g></svg>
