<svg xmlns="http://www.w3.org/2000/svg" viewBox="0 0 919 525"><defs/><g fill="none" fill-rule="evenodd" stroke="#D0011B" stroke-linecap="round" stroke-linejoin="round" stroke-width="4"><path d="M627 370l14 13v28.263085L627 396.5l14 14.763085V338l-33-24.5 2-57-17-16.5s-1.673713 38.910841-2 42.5c-1.5 16.5-7.18509 21.64633-13.5 22.5-10.5 1.419423-18.5-5-26.985569-28.796112C555 275 562.163334 262.606939 560.5 260.5c-5.483679-6.946156-9.231287-14.119625-11-11.5-3.873075 5.736375-2.503559 10.902406-2.5 10 .013538-3.432159 1.316885-10.126494 3.514431-10 3.168306.182373 9.751864 10.156596 9.985569 11.5 1.018608 5.855241-9.161861 17.548875-9.985569 15.703888C548.201344 271.022902 544.278262 263.5 541 263.5c-9.464429-4.680212-24 16-24 16l-2.5 27L545 338m40 32l-12-12v54.34115S585.771077 423.903347 585 423c-1.398117-1.637948-12-10.65885-12-10.65885V338h-28l-30.5-31.5L522 223l-18.5-23.5v39s3.5 34-26.5 41c-19.963569 4.658166-57-51-57-51"/><path d="M467.5 268.5s-22-2-27-19.5 8.5-26.5 8.5-26.5"/><path d="M460 255.5s10-3.5 12.5-13c1.597024-6.068691-.696958-11.465625-5.5-15.5-.767644-.644792-5-3.5-5-3.5l9.5-11.5s-5.779703-17-8.5-17c-1.500959 0-9.5 13-9.5 15s4.5 10 4.5 10M435 181.5s5.528399 2.522719 8 4.5c1.553512 1.242809 4.66306 4.180346 6.5 7 .667465 1.024542-6.5-8.5-9.5-8.5 0 0-2.5 3.5-2 9M480.75 200.5c1.75-5-.964924-7.205596-1.75-7.5-.785076-.294404-5 5.5-5 5.5s2.5-4 5-5.5c2.800424-1.680254 8.5-2.5 8.5-2.5M464 166.5l-1.595073 15.153192L463.5 171c1.5 0 6.5 4 6.5 4s-6-7-15.5-3M246 73.5l64 80.5 21-15.5v-19 19l30 32M331 111v-10M567.5 301s-3-11-7-14.5M538.5 262s-2.5-5.5-5.5-8.5c-1.627512-1.627512-5.312898-4.57314-7-3.5-1.42274.904983 1 5.885153 1 5.885153M23.5 44L38 181.5 68 162v-25 25l41.5 69.5V175L97 191l12.5-16 12.5 16-12.5-16v24L97 211l12.5-12 12.5 12-12.5-12v32.5l27.5 53 1.511231-58.938004L125 241.5l13.511231-15.938004L151.5 241.5l-12.988769-15.938004V254.5L125 264.5l13.511231-10L150.5 264.5l-11.988769-10L137 284.5s8.5 26 34.5 5c14.650449-11.086826 16-71 16-71l18 16-24.5 222-42.488769 38.5L155 523l26-28-9.5-12 9.5 12-26 28-16.488769-28L181 456.5 194 338h34.5S209 309 213 289.5c4.426753-14.755843 15.5-18 22-18 1.453909 2.180864 9 1 11 4.5s-3 7.5-3 7.5 4.180346-5.729481 3-7.5c-2.819654-4.229481-11-4.5-11-4.5s-3 9 0 16.5c1.867874 4.669686 12.802497 10.99484 12.802497 10.99484S239.5 302.5 236.5 307.5c3-5 11.302497-8.50516 11.302497-8.50516S237.645573 294.802903 235 288c-3.5-9 0-16.5 0-16.5s-17.5 0-22 18 15.5 48.5 15.5 48.5h30v-51.694506L269 298.5l-10.5-12.194506L251 294l7.5-7.694506V312.5L269 326l-10.5-13.5-10.697503 13.5L258.5 312.5v108.012447L269 408l-10.5 12.512447L247.802497 408 258.5 420.512447V387l11.5-13-11.5 13-10.697503-13L258.5 387v-49H298s-17-15-17-39.00516c6-29.49484 32.229902-13.620617 32.229902-13.620617C318.5 288.5 316.5 291.5 310 297c6.5-5.5 3.229902-11.625777 3.229902-11.625777L301.5 281.5s-3 3.5-.5 15.5c2.5 5 2 7 15 14 0 0-8 4-11 12 3-8 11-12 11-12-9-4-13.25282-9.644607-15-14-3.034578-7.564638.5-15.5.5-15.5-12.5-2-18.244028 6.537262-20.5 17.49484 0 24 17 39.00516 17 39.00516h31.5v54.5"/><path d="M375 129.905709l10.274313-9.748844 8.728996 9.748844L385 142.5l-10-12.594291-2 21.115117h20.508837v10.4934H370.5L364.5 220H356v-15.5m-12.5 13V195v22.5zm-8 0V194v23.5zm-11 0V194v23.5zm-9.5 0V196v21.5zm-13-13s.29048 14.078925 0 13c-.458729-1.703852 0-13 0-13s11-11.5 28.5-11.5c18.5 0 25.5 11.5 25.5 11.5V220h-63.5v-38.5L282 195l10.5-13.5L302 195l-9.5-13.5v-18l9.5 16-9.5-16-10.5 16 10.5-16v92V220m22.5 35.5v-34 34zm23.5 3.5l2-26-2 26zM280 220l-1 37.5 1-37.5-13 3-3.5 41 3.5-41s-17.886355 5.468172-18.776386 6.956392C246.652717 232.583084 246 255.5 246 255.5l2.223614-25.543608S277.84783 214.864597 305.5 220c35 6.5 57.615211 26.350151 57.615211 26.350151L362 272s7.5 5 13 10c.654543.654543 10 15.5 10 15.5M373 443l8.683705 10-16.738639 12.513158L352 443l29.683705-24.86978L385 297.5l8.508837-127H378h15.508837L387 275h25.5v-95.5l9 10-9-10-8.5 10 8.5-10v22L420 212l-7.5-10.5L404 212l8.5-10.5V239l9 10.5-9-10.5-8.5 9 8.5-9v13.5l9 13.5-9-13.5L404 264l8.5-11.5V275s17 0 31 7c31.33093 15.665465 27 55.5 27 55.5h36-36v47l-25.589775 18.543315L436 410l8.910225-6.956685V416.5v-79H407.5h37.410225V376L436 383l40.5-31.5m-91.5-54S371.5 268 330.5 259c-38-10.5-67 7-67 7l15.5 16s-13.376162-14.088161-18.5-18c-9.153021-6.987955-24.5-8.5-24.5-8.5L250 125l-16.5-22.5-2.5 40s0 30-27.5 39c-16.932914 0-33.330861-31.810419-33.330861-31.810419L151.5 116.5l-1.261-53.7053761 7.64045 7.7113242-7.84571-7.7113242c.092955-10.62152.110287-21.6009652 0-24.7946239l11.554355 10.8283644L150.03374 38 139 48.8283644 150.239 38l-.20526 24.7946239L139 72l11.03374-9.2053761L151.5 116.5 110 48V33v15L84.5 72 54 2"/><g><path d="M501 161l44.9118299 35.396603v-19.7708931l-9.0839238 6.94653 9.0839238-6.94653 9.0839238 6.94653-9.0839238-6.94653v19.7708931l32.5952561 30.4578623L602.018418 212v-11 11l98.320117 73.098447v-18.637571 18.637571h41.67918-41.67918l12.824363 10.152621h17.099151-17.099151l28.854817 21.373939S739.5 306.5 745 302.5c6.5-2.5 13 1.834992 13 1.834992l-2.5-1.603045 2-3.231947s-2.593873-5.030038-4.5-4.248932c-1.906127.781106-6.474168 5.913829-8 7.248932 0-.406118 31.5-47.5 31.5-47.5l-8 3.5 8-3.5s-30.10601 46.612915-31.5 47.5c-5.907879 4.543025-2.982285 14.125007-2.982285 14.125007l9.482285 6.94653 5-6.94653-5 6.94653 22.578623 14.427408s-12.824363-20.592112-8.549576-27.662381c4.274788-7.070269 14.554773 0 14.554773 0s-10.814333-4.151049-14.554773 0C764.008201 312.024363 776 301 776 301l7.5 6s3.5-2.665008 2.5-7.063215C785 295.538579 776 301 776 301l38.154757-34.539124-9.883111 2.420975 9.883111-2.420975-48.62571 43.875688s-3.740439 7.891488 8.549576 27.662381l7.480878-7.480878-7.480878 7.480878h22.032233s-10.276567-12.824363-3.864386-20.59086c-1.603045-2.920472 55.57224-35.515728 55.57224-35.515728l-8.549575-1.603046 8.549575 1.603046-67.73489 40.076134 22.84962-13.358711s10.15262.534348 10.15262 4.274787c0 3.74044-5.343484 4.523518-5.343484 4.523518l-4.809136-8.798305s-5.877833 2.634853-10.68697 8.798305c-4.809136 6.163452-1.093335 12.57561 3.864386 20.59086l8.16079-9.083924-8.16079 9.083924h36.211749s-14.961757-11.221318-8.549575-18.702196c6.412181-5.343485 50.763103-24.045681 50.763103-24.045681l-9.846238-1.23078 9.846238 1.23078-60.381376 26.717423 24.580029-10.686969s-2.232854-6.653224-5.343484-5.343485c-3.11063 1.30974-4.274788 9.618273-4.274788 9.618273l-2.137394 1.068697-3.20609 3.20609c-5.877834 7.480879 8.549575 18.167848 8.549575 18.167848l6.94653-9.083924-6.94653 9.083924h41.028509s-2.240137-2.732381-4.445874-5.984421c-1.989089-2.932626-3.950203-6.287843-4.215345-8.442987-.357207-2.903463.378076-7.044907 3.776286-9.083924 3.39821-2.039017 47.749132-11.755666 47.749132-11.755666l-8.385483-2.795162 8.385483 2.795162-32.595256 7.604617s-2.137394-7.604617-8.015227-6.001572c-2.593161.465555-2.253716 8.549575-2.253716 8.549575l-16.982828 4.523518 12.097895-2.920472s-4.617017 2.920472-3.776286 9.083924c.166092 3.114541 8.661219 14.443818 8.661219 14.443818h6.528504s2.671742-2.688152 3.740439-4.825546c1.068697-2.137394 1.603046-4.809136 1.603046-4.809136s-.534349 2.671742-1.603046 4.809136c-1.068697 2.137394-3.740439 4.825546-3.740439 4.825546H893V343"/><path d="M751 292.5v-19V284l-25.5-16v12.5V255v13L702 284M678.5 331L660 318M652.5 284.5l10-9.5M628 284.5l-10.5-10M647 323l9-16-15.5-14-11.5 10.5"/></g><g><path d="M9.5 338.5H53v37l10.5-9-10.5 9-10-9 10 9v29L43 395l10 9.5 10.5-9.5-10.5 9.5V263.0093674L43 280l10-16.9906326L63.5 280 53 263v34.5l10.5 17-10.5-17-10 17 10-17v41h46.5v28"/><path d="M2.5 423.5l28 26.5 80.5-76c20-19 32-30.5 45.5-22.5s11 36.5 11 36.5l-3.5 47.5"/></g></g></svg>
