<svg xmlns="http://www.w3.org/2000/svg" viewBox="0 0 896 322"><defs/><g fill="none" fill-rule="evenodd" stroke="#D0011B" stroke-linecap="round" stroke-linejoin="round" stroke-width="4"><path d="M882 2l-37 140-15-5.5-20.5 64L845 224l41-102-24 60v-32l5.5 7-5.5-7-7 7 7-7v-18.5s-7.399325 5.165-7 5c.731378-.302204 7-5 7-5l5.5 5-5.5-5V182l-17 42-30.156896 71.5L851 261l24 15.061496L851 261l-36.156896 33.823013m-26.629338 24.050489L814.843104 295.5 845 224l-78-54.5-52.5 86-9.5-3.5-3.5 19 6 3.5 2 39.5 12.680119-10m1.381658 14.47623L722.180119 304 709.5 314l-2-39.5s.180119-14.5 13-14.5 11.5 22 11.5 22l-11.5 13.5L732 282l2.222572 19.5L747 293l-5 8.5m3.034936 17.042333L742 301.5h-7.777428v-16l10.920953-9.438504L751.5 287.5s13-4.5 19.5 6.5c3.178211 4.873257 4.542513 17.426915 5.081808 24.708661M771 294c-3.159382-7.681764-10.5-8.5-10.5-8.5V252l-6-9.5 8-18.5 11 9.5s-1.132714.530667-4.5 2.5-5.892453 4.981133-6.5 6.5c-.918994 2.297485 3.5-8 13.5-9V187l-8.263968 10.406478L776 187l8.5 10.406478L776 187v18l8.5 8.5-8.5-8.5-8.263968 8.5L776 205v28.5s7-2.75 11.5 9 2 16.5 2 16.5L776 273l.398795 12.5L784.5 282v19.5V282l-8.5 3.5V273l13.5-14s2-7.5-2-16.5-7.5-9-7.5-9l9.5-12s.277402-17.854386 2-21c1.237364-2.259534 9.167796 1.47878 9.167796 1.47878L791.5 200.5l-2 21 7 7s-4.5-22 13-20c14.678848 1 14.678848 29.157096 14.678848 29.157096L809.5 252l14.678848-14.342904S824.2925 208.5 809.5 208.5c-12 0-13.5 4.5-13 20 .366921 11.374561 1 43 1 43l12-10.5v18.5M893.5 317H870v-37.5l7.75 11.5-7.75-11.5-8 11.5 8-11.5v21l-8 8.326037L870 300.5l7.75 8.326037L870 300.5m0 16.5h-22M681.523856 228.149951S683 190.425511 674.5 190.425511s-9.013145 14.475657-9.013145 14.475657l-9.650438 14.475658 1.315969-17.546252s2.193281-11.405063-7.457157-11.405063-7.457157 11.405063-7.457157 11.405063l-12.721032 20.178189s25.029512-2.668325 25.003408-2.631937c-.167075.232892-25.003408 2.631937-25.003408 2.631937v-20.178189s0-9.650438-10.527751-9.650438c-6.813278 0-8.363619 1.992537-9.211782 6.141188-.462402 2.261768-8.334469 10.966407-8.334469 10.966407s8.773126-10.089094 8.334469-10.966407c.877313-5.702531 5.148252-5.971874 9.211782-6.141188 10.527751-.438656 10.527751 9.650438 10.527751 9.650438v20.178189l1.315969 17.546252-1.315969-17.546252-13.159688-10.966407v17.107595-17.107595l-13.598345 13.598345-39.040409 3.50925 24.564752-2.193281s11.255011-14.05681 13.159688-16.668939c0-7.895813-2.631938-15.35297-11.84372-14.475657-10.950338 1.042889-8.334469 14.475657-8.334469 14.475657l-17.546251 18.86222-17.546251-6.141188 17.546251 6.141188 8.334469-8.773125v-13.159689c0-3.50925 0-11.405063-8.334469-11.405063s-7.018501 10.089094-7.018501 10.089094l-10.52775 17.107595-6.141188-2.631937 8.065911 80.659108 10.357652 12.774679-1.754625-40.795034 1.754625 40.795034-10.357652-12.774679-5.87263 16.28393m.210485 2.180136L540.5 296l1.72444 20.319864 5.87263-16.28393-8.065911-80.659108-7.457157 13.598344 2.631938 31.583253-2.631938-31.583253h-17.546251l4.386563 42.988316-4.386563-42.988316 1.754625 21.494158L504.5 250.960078l4.825219 56.148004m9.3939 11.844483l-9.3939-11.844483L504.5 250.960078l12.282376 3.50925-1.754625-21.494158h17.546251l7.457157-13.598344 6.141188 2.631937s-2.314224-32.350172-3.947907-33.776533c-2.12755-1.857554-5.702532-1.991035-5.702532-3.947907 0-4.386563 3.509251-3.070594 3.509251-3.070594L583.5 181h-35.40293l68.260282-74.5V94v12.5l13.475657 12L583.5 181h46.01704H583.5l73.652386-99V72v10l24.37147 12L689 82l18 9 34.5-54L707 91l-18-9V72v10l-59.48296 99h48.252191l19.300876-31.808179s2.193282-17.546251-17.984907-17.546251c-15.79744 0-14.914314 18.509142-14.914314 18.509142h22.37147-22.37147s-4.825219 1.669047-4.825219 5.616953c0 3.947907 3.50925 7.018501 3.50925 7.018501v7.0185-7.0185s-3.50925-2.193282-3.50925-7.018501 4.825219-5.616953 4.825219-5.616953-.877312-18.509142 14.914314-18.509142c19.91069 0 17.984907 17.546251 17.984907 17.546251L714.5 122v-11.5V122l31 20-7.196203 18.596884L721.5 149.191821 662.854917 269 721.5 149.191821l16.803797 11.405063 36.913904-95.2795877L792 72l19-58.5M616.357352 82v6.5V82zM689 56.5V62v-5.5zm-58.166991 183.055015l2.414916 60.591237-2.414916-60.591237zm-13.962999 70.74294l-.512658-59.337877.512658 59.337877 4.825219 7.895813M499.5 286.5c-8.5-12-22-15.5-22-15.5v12-20l8 6-8-6v-15l8 7-8-7-8.667883 7L477.5 248v15l-8.667883 6L477.5 263s.141513 8.021771 0 8c-9.71414-1.494483-14.853249-.980027-22.5 1.5-7.646751 2.480027-14.5 10.5-14.5 10.5v17.5-41L432 269l8.5-9.5 7 9.5-7-9.5v14l-8.5 8 8.5-8v9.5c-5.803009 6-8.5 20-8.5 20m0 16.5h-34m0 0h56.5l.5-16.5s-1.5-14 7-14 6 15 6 15l-5 8s9-19.5 22.5-21 18 4.5 18 4.5-4.5-6-18-4.5-22.5 21-22.5 21l5-8s2-15-6-15-7 14-7 14l-.5 16.5H432V303s-13-16.5-40-16.5c-7.5 0-15 4.5-15 4.5v16-38l7.5 7.5-7.5-7.5-8 7.5 8-7.5v22s-10.5 3-18.5 19c0 0-.121596 6.338494 0 9.5m0 0h-37m0 0h37V310c-2.01704-.973743-13.5-7-13.5-7v-24.5l-7 8 7-8 7 8-7-8V303s-10.5-4-22.5-2.5-18 6.5-18 6.5 1-11.5-7-11.5c-9 0-5.5 22.5-5.5 22.5l5.5-4-5.5 4m0 0h-51.5"/><path d="M476 250.197547l-30.596998-23.536152-42.365074 47.072304 9.414461-7.060845L361.584222 220l-66.812595 64.913372 8.826057-8.237654-39.9379-38.401827-58.900886 35.627147-4.558917-9.219168 6.311075-4.633817-11.768076-7.591367-5.115264 7.591367 2.364425 6.325908-7.536897.151177L173.676831 232.5l10.778413 33.873961s-9.932801 2.29324-10.778413 5.03009c-3.646811 11.155706 3.414035 18.804955 3.414035 18.804955l15.0694-9.04164-33.309918 21.39812-1.765212-19.417326-11.179672-6.472442 7.64925-10.301757s0-1.692091-5.295635-4.996742c-5.295634-3.30465-8.826057 12.35648-8.826057 12.35648s4.118827 8.826058 2.353615 15.298499c1.765212-6.472441-4.118826-17.628147-4.118826-17.628147l-7.64925 2.496987-16.475306-27.233914 16.475306 27.233914-9.414461 7.266328c-1.382926 12.446334 17.063711 36.108215 17.063711 36.108215h15.886903-9.414461s7.649249-5.295634 7.060845-14.710095c.588404 9.414461-7.060845 14.710095-7.060845 14.710095h-37.657844s8.826057-4.70723 7.060846-14.710095c1.765211 10.002865-7.060846 14.710095-7.060846 14.710095s-12.9448838-11.179672-17.0637105-26.478171c.5884038-6.472442 8.2376533-7.64925 8.2376533-7.64925s2.9827213-1.259862 5.2956342 1.176808c2.889926 3.044556 4.707231 7.649249 4.707231 7.649249l-4.118827-10.806851 8.826057 1.392391s5.295634-5.295635 0-8.826058c-5.295634-.588403-8.826057 7.433667-8.826057 7.433667l-25.3013638-24.497377 25.3013638 24.497377-5.8840382 1.980794s-8.8260571 1.765212-7.6492495 7.64925c.5884038 10.591268 16.4753067 26.478171 16.4753067 26.478171H87.6534871s-9.4144609-9.414461-7.6492495-18.240518c-1.7652114 8.826057 7.6492495 18.240518 7.6492495 18.240518H68.8245653S73.5317957 306.295634 72.3549881 301c1.1768076 5.295634-3.5304228 16.275581-3.5304228 16.275581s-11.3965149-13.762036-10.5912686-26.478171c.1999407-3.157386 12.6016425-5.26887 12.6016425-5.26887s3.8736641 1.150043 5.6388756 8.210889c0 0 7.0608456-10.591269 2.942019-13.904471-7.0608457-1.394028-8.5808946 5.693582-8.5808946 5.693582l-27.3117377-11.794841 27.3117377 11.794841s-12.6016425 1.738447-12.6016425 5.26887c-2.3536152 8.237653 10.5912686 26.478171 10.5912686 26.478171H57.0564891s-4.1188266-8.237653-3.5304228-12.944884c-.5884038 4.707231 3.5304228 12.944884 3.5304228 12.944884H39.4043749s10.0028647-5.884038 8.8260571-10.591268c.5884038 4.70723-8.8260571 10.591268-8.8260571 10.591268s-4.7072305-10.002865-4.7072305-18.240518c.7362316-1.472463 6.7695125-3.758897 6.7695125-3.758897s10.8826017-12.716409 7.3521789 3.170493c0 0-6.4921257-3.743962-7.3521789-3.170493-.6291686.41952-21.4796077-4.478756-21.4796077-4.478756l21.4796077 4.478756s-5.5927049 1.993686-6.7695125 3.758897c-1.1768076 1.765212 4.7072305 18.240518 4.7072305 18.240518H2.92333882M240 244.5L222 222M281.5 244.5l24-19M325 237l-19-24M413.5 215.5l-24 19M399 212l19 24M517 169l-6.5 5v18-18s-6 4.5-15.5 4.5V212v-33.5l-7-1.25M530.4774641 165S507 161.5 512.5 146s37-32.5 37-32.5"/><path d="M539.5 157.5s-16.5-2-13.5-10.5 39.5-10.5 39.5-10.5M506.5 150.5L498 146l-3 8s1 8.5 12 12"/></g></svg>
