
<svg width="398px" height="62px" viewBox="0 0 398 62" version="1.1" xmlns="http://www.w3.org/2000/svg" xmlns:xlink="http://www.w3.org/1999/xlink">
    <!-- Generator: Sketch 43.1 (39012) - http://www.bohemiancoding.com/sketch -->
    <desc>Created with Sketch.</desc>
    <defs></defs>
    <g id="Art-Shop-" stroke="none" stroke-width="1" fill="none" fill-rule="evenodd">
        <g id="Desktop-HD-Copy" transform="translate(-776.000000, -776.000000)" stroke="#0B101B" stroke-width="3">
            <g id="final-1" transform="translate(779.000000, 778.000000)">
                <path d="M132,21.5 C132,21.5 151.923329,1 176.5,1 C201.071703,1 220.991945,21.4917131 221,21.5 M302.363669,28.0136723 C312.192901,22.6471992 325.92022,16.3138302 338.5,17 C345.804594,17.3984324 353.498689,18.074499 358,22.5 C388.5,52.4863277 393,58 393,58 C393,58 383,43.5 366,46 C351.476202,48.1358527 357,55 340.25,58 C317.888855,62.0049812 287.5,37.5 287.5,37.5 L302.363669,28.0136723 Z M289.869901,35.7701578 C282.869492,39.2530124 274.496519,42 265.5,42 C240.927191,42 221.006262,21.5064426 221.000001,21.5000015 M305.363669,28.0136723 L305.363669,28.0136723 L305.363669,28.0136723 Z M132,21.5 C132,21.5 112.076671,42 87.5,42 C62.9233286,42 43,21.5 43,21.5 C43,21.5 62.9233286,1 87.5,1" id="Combined-Shape-Copy-5"></path>
                <path d="M90,21.5 C90,21.5 109.923329,1 134.5,1 C159.074728,1 178.996849,21.4967582 179,21.4999996 L179.000003,21.4999973 M267.999999,21.4999994 C268.000911,21.499063 287.92389,1 312.5,1 C337.076671,1 357,21.5 357,21.5 M268,21.5 C268,21.5 248.076671,42 223.5,42 C198.923659,42 179.000536,21.5005519 179,21.5" id="Combined-Shape"></path>
                <path d="M89,20.5 C89,20.5 108.923329,41 133.5,41 C158.074728,41 177.996849,20.5032418 178,20.5000004 L178.000003,20.5000027 M266.999999,20.5000006 C267.000911,20.500937 286.92389,41 311.5,41 C336.076671,41 356,20.5 356,20.5 M178,20.5 C178.000536,20.4994481 197.923659,0 222.5,0 C247.076671,0 267,20.5 267,20.5 L267,20.5 M44.5,41 C19.9233286,41 0,20.5 0,20.5 C0,20.5 5.69536588,14.6397844 14.7522192,9.18583035 C22.6347443,4.43904598 33.0635574,0 44.5,0 C69.0766714,0 89,20.5 89,20.5" id="Combined-Shape"></path>
            </g>
        </g>
    </g>
</svg>