<svg width="268px" height="57px" viewBox="0 0 268 57" version="1.1" xmlns="http://www.w3.org/2000/svg" xmlns:xlink="http://www.w3.org/1999/xlink">
    <g id="Art-Shop-" stroke="none" stroke-width="1" fill="none" fill-rule="evenodd">
        <g id="Tablet-Portrait" transform="translate(-94.000000, -9.000000)" stroke="#10090D" stroke-width="2">
            <g id="logo-sides" transform="translate(94.000000, 10.000000)">
                <path d="M234.378769,20.8804678 C209.633404,-0.509595613 183.541535,36.476087 155.122222,24.1122385 C135.203592,15.4466201 132.665915,0.815502903 105.583011,0.815502903 C78.5001056,0.815502903 74.4394024,20.8804678 48.8770955,20.8804678 C23.3147887,20.8804678 23.7127465,0.815502903 0.0660298619,0.815502903" id="Path-7"></path>
                <path d="M266.341767,54.036867 C266.341767,54.036867 232.676723,19.1852875 232.676723,19.1852875 C211.063174,-1.35944547 187.047054,-9.39929899 154.537562,23.9707844" id="Path-8"></path>
                <path d="M266.620698,54.4392293 C266.620698,54.4392293 251.835729,36.5329853 238.755471,34.348065 C225.675214,32.1631448 220.844479,41.2968389 200.810419,36.3718191 C180.776358,31.4467993 183.341943,1.07804263 155.212004,1.07804263 C127.082066,1.07804263 129.045964,22.4330504 104.405106,22.4330504 C79.7642472,22.4330504 81.4626732,1.07804263 50.2404363,1.07804263 C19.0181995,1.07804263 24.0955496,21 0,21" id="Path-9"></path>
            </g>
        </g>
    </g>
</svg>