<?xml version="1.0" standalone="no"?>
<!DOCTYPE svg PUBLIC "-//W3C//DTD SVG 20010904//EN"
 "http://www.w3.org/TR/2001/REC-SVG-20010904/DTD/svg10.dtd">
<svg version="1.0" xmlns="http://www.w3.org/2000/svg"
 width="1176.000000pt" height="1176.000000pt" viewBox="0 0 1176.000000 1176.000000"
 preserveAspectRatio="xMidYMid meet">
<metadata>
Created by potrace 1.11, written by Peter Selinger 2001-2013
</metadata>
<g transform="translate(0.000000,1176.000000) scale(0.100000,-0.100000)"
fill="#000000" stroke="none">
<path d="M2167 6633 l2167 -2166 758 762 758 763 765 -766 c420 -421 766 -766
769 -766 6 0 4336 4330 4336 4336 0 2 -2637 4 -5860 4 l-5860 0 2167 -2167z"/>
<path d="M4953 4847 l-482 -482 689 -689 690 -689 21 19 c38 34 1359 1356
1359 1360 0 8 -961 966 -965 963 -3 -2 -97 -96 -210 -208 l-205 -204 -184 184
c-101 101 -195 194 -208 206 l-24 22 -481 -482z"/>
</g>
</svg>
